<?xml version="1.0" encoding="UTF-8" standalone="no"?>
<svg
   id="Layer_1"
   data-name="Layer 1"
   viewBox="0 0 100 100"
   version="1.1"
   sodipodi:docname="audius.svg"
   width="100"
   height="100"
   inkscape:version="1.2.2 (b0a8486541, 2022-12-01)"
   xmlns:inkscape="http://www.inkscape.org/namespaces/inkscape"
   xmlns:sodipodi="http://sodipodi.sourceforge.net/DTD/sodipodi-0.dtd"
   xmlns="http://www.w3.org/2000/svg"
   xmlns:svg="http://www.w3.org/2000/svg">
  <sodipodi:namedview
     id="namedview6470"
     pagecolor="#ffffff"
     bordercolor="#000000"
     borderopacity="0.25"
     inkscape:showpageshadow="2"
     inkscape:pageopacity="0.0"
     inkscape:pagecheckerboard="0"
     inkscape:deskcolor="#d1d1d1"
     showgrid="false"
     inkscape:zoom="0.79054538"
     inkscape:cx="171.40066"
     inkscape:cy="263.74197"
     inkscape:window-width="1356"
     inkscape:window-height="732"
     inkscape:window-x="0"
     inkscape:window-y="0"
     inkscape:window-maximized="1"
     inkscape:current-layer="Layer_1" />
  <defs
     id="defs6465">
    <style
       id="style6463">.cls-1{fill:#111;}</style>
  </defs>
  <path
     class="cls-1"
     d="M 98.855814,95.918105 71.604414,48.63338 58.822144,26.466739 44.350824,1.3640483 a 2.7271192,2.7271192 0 0 0 -4.72408,0 L 12.311574,48.598191 1.1501744,67.899156 a 2.7293185,2.7293185 0 0 0 2.36204,4.095079 l 21.0845896,0.0132 a 2.733717,2.733717 0 0 0 2.36424,-1.361363 l 10.95686,-18.953477 1.67585,-2.898664 a 2.938251,2.938251 0 0 1 0.21993,-0.321097 2.7293185,2.7293185 0 0 1 4.50855,0.325495 l 11.37033,19.723229 2.10471,3.644227 a 2.9140587,2.9140587 0 0 1 0.26832,0.63999 2.7293185,2.7293185 0 0 1 -2.63915,3.45069 l -24.80359,-0.0154 a 2.733717,2.733717 0 0 0 -2.36424,1.36136 l -10.55658,18.2541 a 2.7271192,2.7271192 0 0 0 2.35983,4.09288 l 21.85874,0.0154 27.2558,0.0176 27.31078,0.01761 a 2.7271192,2.7271192 0 0 0 2.36863,-4.081885 z"
     id="path6467"
     style="fill:#ffffff;fill-opacity:1;stroke-width:0.219929" />
</svg>
