<?xml version="1.0" encoding="utf-8"?>
<!-- Generator: Adobe Illustrator 25.4.1, SVG Export Plug-In . SVG Version: 6.00 Build 0)  -->
<svg version="1.1" id="Capa_1" xmlns="http://www.w3.org/2000/svg" xmlns:xlink="http://www.w3.org/1999/xlink" x="0px" y="0px"
	 viewBox="0 0 100 100" style="enable-background:new 0 0 100 100;" xml:space="preserve">
<style type="text/css">
	.st0{fill:#FFFFFF;}
</style>
<g>
	<path class="st0" d="M6.7,83.7c0-22.3,0-44.4,0-66.7c28.5,0,57,0,85.7,0c0,22.1,0,44.3,0,66.7C64,83.7,35.5,83.7,6.7,83.7z
		 M26.1,36.1c-3.3,0-6.5,0-9.8,0c0,12.8,0,25.3,0,37.9c22.4,0,44.6,0,66.7,0c0-12.8,0-25.3,0-37.9c-3.4,0-6.6,0-9.8,0
		c0.1-3.1,0.3-6.3,0.4-9.4c-16.3,0-31.9,0-48,0C25.8,29.9,26,33,26.1,36.1z"/>
	<path class="st0" d="M35.3,45.3c3.1,0,6.1,0,9.4,0c0,3.7,0,6.9,0,10.1c-3,0-5.9,0-9.4,0C35.3,51.7,35.3,48.5,35.3,45.3z"/>
	<path class="st0" d="M54.6,55.3c0-3.2,0-6.3,0-10.1c3.3,0,6.3,0,9.4,0c0,3.2,0,6.3,0,10.1C60.7,55.3,57.7,55.3,54.6,55.3z"/>
	<path class="st0" d="M44.7,55.3c3.3,0,6.7,0,10,0c0,3,0,5.9,0,9.1c-3.4,0-6.4,0-10,0C44.7,61.4,44.7,58.3,44.7,55.3z"/>
	<path class="st0" d="M26,36c3,0,6,0,9.4,0c0,3.3,0,6.4,0,9.4c-3.1,0-6.2,0-9.4,0C26,42.1,26,39,26,36z"/>
	<path class="st0" d="M64,45.4c0-3,0-6,0-9.4c3.3,0,6.4,0,9.4,0c0,3,0,6,0,9.4C70.3,45.4,67.1,45.4,64,45.4z"/>
</g>
</svg>
