<?xml version="1.0" encoding="utf-8"?>
<!-- Generator: Adobe Illustrator 25.4.1, SVG Export Plug-In . SVG Version: 6.00 Build 0)  -->
<svg version="1.1" id="Capa_1" xmlns="http://www.w3.org/2000/svg" xmlns:xlink="http://www.w3.org/1999/xlink" x="0px" y="0px"
	 viewBox="0 0 25 25" style="enable-background:new 0 0 25 25;" xml:space="preserve">
<style type="text/css">
	.st0{fill:#FFFFFF;}
	.st1{fill-rule:evenodd;clip-rule:evenodd;fill:#FFFFFF;}
</style>
<g>
	<path class="st0" d="M11.5,11L11.5,11l0.7-3c0,0,0.2,0,0.3,0c1,0.2,3.2,0.7,2.7,2.2C14.8,12,12.3,11.3,11.5,11z"/>
	<path class="st0" d="M10.2,15.8L10.2,15.8c1.2,0.3,4,1.2,4.3-0.5c0.3-1.5-2.2-2.2-3.3-2.5c-0.2,0-0.2,0-0.3,0L10.2,15.8z"/>
	<path class="st1" d="M12.5,25C19.3,25,25,19.3,25,12.5S19.3,0,12.5,0S0,5.7,0,12.5S5.7,25,12.5,25z M17.8,10.5
		c0.3-1.8-1-2.8-2.7-3.3l0.7-2.5l-1.3-0.3l-0.7,2.3c-0.2,0-0.2,0-0.3,0c-0.3,0-0.5-0.2-0.8-0.2l0.7-2.3L12,3.8l-0.7,2.3L8.5,5.5
		L8.2,7.2l1,0.2c0.5,0.2,0.7,0.5,0.7,0.8L9.2,11l-1,4c0,0.2-0.3,0.5-0.7,0.3l-1-0.3l-0.7,1.7l2.7,0.8L7.8,20l1.3,0.3l0.7-2.5
		c0.2,0,0.5,0.2,0.7,0.2c0.2,0,0.3,0,0.5,0.2l-0.7,2.5l1.3,0.3l0.7-2.5c2.3,0.5,4.2,0.2,5-2c0.7-1.8,0-2.8-1.2-3.7
		C17,12.5,17.7,11.8,17.8,10.5z"/>
</g>
</svg>
