<?xml version="1.0" encoding="utf-8"?>
<!-- Generator: Adobe Illustrator 25.4.1, SVG Export Plug-In . SVG Version: 6.00 Build 0)  -->
<svg version="1.1" id="Capa_1" xmlns="http://www.w3.org/2000/svg" xmlns:xlink="http://www.w3.org/1999/xlink" x="0px" y="0px"
	 viewBox="0 0 96 50" style="enable-background:new 0 0 96 50;" xml:space="preserve">
<style type="text/css">
	.st0{fill:#B0B7C3;}
</style>
<g>
	<path class="st0" d="M0,13h4.9v23.6H0V13z"/>
	<path class="st0" d="M7.1,24.7c0.3-4.4,4.3-5.7,8.3-5.7c3.5,0,7.8,0.8,7.8,4.8v8.9c0,1.5,0.2,3.1,0.6,3.8h-4.9
		c-0.2-0.5-0.3-1.1-0.3-1.6c-1.5,1.5-3.8,2.1-6,2.1c-3.4,0-6-1.6-6-5.1c0-3.9,3-4.8,6-5.2c3-0.4,5.8-0.3,5.8-2.2
		c0-2-1.4-2.3-3.2-2.3c-1.8,0-3,0.7-3.2,2.6H7.1z M18.4,28.2c-0.8,0.7-2.5,0.7-4,1c-1.5,0.3-2.9,0.8-2.9,2.5c0,1.7,1.4,2.2,3,2.2
		c3.8,0,3.9-2.9,3.9-3.9V28.2z"/>
	<path class="st0" d="M25.6,13h4.9v8.6h0.1c1.2-1.7,3.4-2.5,5.6-2.5c3.5,0,7.3,2.7,7.3,9c0,6.3-3.8,9-7.3,9c-2.6,0-4.8-0.8-5.8-2.6
		h-0.1v2.2h-4.6V13z M34.5,22.6c-2.9,0-4.1,2.6-4.1,5.5c0,2.8,1.3,5.5,4.1,5.5c2.9,0,4.1-2.6,4.1-5.5C38.6,25.2,37.4,22.6,34.5,22.6
		z"/>
	<path class="st0" d="M53.8,19c5.6,0,9.2,3.6,9.2,9c0,5.4-3.6,9-9.2,9c-5.5,0-9.1-3.6-9.1-9C44.7,22.6,48.2,19,53.8,19z M53.8,33.5
		c3.3,0,4.3-2.7,4.3-5.5c0-2.7-1-5.5-4.3-5.5c-3.3,0-4.3,2.7-4.3,5.5C49.5,30.7,50.5,33.5,53.8,33.5z"/>
	<path class="st0" d="M64.1,19.5h4.6v3.2h0.1c0.9-2.1,3.3-3.6,5.7-3.6c0.3,0,0.8,0.1,1.1,0.2v4.4c-0.4-0.1-1.2-0.2-1.7-0.2
		c-3.6,0-4.8,2.5-4.8,5.5v7.7h-4.9L64.1,19.5L64.1,19.5z"/>
	<path class="st0" d="M88,22.8l6.8-9.8h-6L85,18.5L88,22.8z"/>
	<path class="st0" d="M78.3,36.6l8.8-12.6L79.5,13h0h-6l7.6,10.9l-8.8,12.6H78.3z"/>
	<path class="st0" d="M88,25.1l-3,4.3l5,7.2h6L88,25.1z"/>
</g>
</svg>
