<?xml version="1.0" encoding="utf-8"?>
<!-- Generator: Adobe Illustrator 25.4.1, SVG Export Plug-In . SVG Version: 6.00 Build 0)  -->
<svg version="1.1"
	 id="svg2" xmlns:cc="http://creativecommons.org/ns#" xmlns:dc="http://purl.org/dc/elements/1.1/" xmlns:inkscape="http://www.inkscape.org/namespaces/inkscape" xmlns:rdf="http://www.w3.org/1999/02/22-rdf-syntax-ns#" xmlns:sodipodi="http://sodipodi.sourceforge.net/DTD/sodipodi-0.dtd" xmlns:svg="http://www.w3.org/2000/svg"
	 xmlns="http://www.w3.org/2000/svg" xmlns:xlink="http://www.w3.org/1999/xlink" x="0px" y="0px" viewBox="0 0 500 500"
	 style="enable-background:new 0 0 500 500;" xml:space="preserve">
<style type="text/css">
	.st0{opacity:0.994;}
	.st1{fill:#B0B7C3;}
</style>
<sodipodi:namedview  bordercolor="#666666" borderopacity="1" gridtolerance="10" guidetolerance="10" id="namedview4" inkscape:current-layer="text20" inkscape:cx="210.83249" inkscape:cy="208.59762" inkscape:document-rotation="0" inkscape:pageopacity="0" inkscape:pageshadow="2" inkscape:snap-text-baseline="false" inkscape:window-height="1025" inkscape:window-maximized="1" inkscape:window-width="1920" inkscape:window-x="0" inkscape:window-y="27" inkscape:zoom="1.2194444" objecttolerance="10" pagecolor="#ffffff" showgrid="false">
	</sodipodi:namedview>
<g id="g10" transform="matrix(1.3333333,0,0,-1.3333333,0,1440)" inkscape:groupmode="layer" inkscape:label="Proyecto fisura Logo">
	<g id="g895" transform="translate(-0.22974227,-11.541231)" class="st0">
		<g id="text20" transform="scale(1,-1)">
			<path id="path875" class="st1" d="M9.6-810.6v-20.6h20.1v-3.2H9.6v-17.5h25.7v-3.1H6.5v44.5L9.6-810.6z"/>
			<path id="path877" class="st1" d="M79.1-810.6v-44.5H76v44.5H79.1z"/>
			<path id="path879" class="st1" d="M144.9-832.1c2.1,1.2,3.7,2.6,4.9,4.4c1.2,1.7,1.8,3.5,1.8,5.5c0,1.7-0.4,3.3-1.2,4.9
				c-0.8,1.5-2,2.8-3.6,4c-3.2,2.3-6.9,3.4-11.2,3.4c-2.1,0-4.1-0.3-6-0.9c-1.9-0.6-3.6-1.4-5.1-2.5c-2.6-1.9-4.2-4.3-4.7-7.1
				l2.9-1.6c0.1,2.5,1.4,4.6,3.7,6.2c1.2,0.9,2.6,1.6,4.2,2.1c1.6,0.5,3.3,0.7,5.1,0.7c3.7,0,6.7-0.9,9.2-2.8
				c2.4-1.8,3.6-3.9,3.6-6.3c0-1.4-0.5-2.7-1.4-4c-0.9-1.2-2.1-2.3-3.7-3.1c-1.5-0.8-4.2-1.4-8.1-1.8c-0.3,0-1.5-0.2-3.5-0.5
				c-2-0.3-3.7-0.8-5.1-1.5c-2.2-1.1-4-2.5-5.3-4.3c-1.3-1.8-1.9-3.8-1.9-5.9c0-1.7,0.4-3.3,1.2-4.7c0.9-1.5,2.1-2.8,3.6-4
				c1.5-1.1,3.2-1.9,5.1-2.5c1.9-0.6,3.9-0.9,6-0.9c4.2,0,8,1.1,11.2,3.4c2.6,2,4.2,4.3,4.7,7l-2.9,1.6c0-1.1-0.4-2.2-1-3.3
				c-0.6-1-1.5-2-2.6-2.9c-1.2-0.9-2.6-1.6-4.2-2.1c-1.6-0.5-3.3-0.8-5-0.8c-1.7,0-3.4,0.3-5.1,0.8c-1.6,0.5-3,1.1-4.2,2.1
				c-1.2,0.9-2.1,1.8-2.7,2.9c-0.6,1-1,2.1-1,3.3c0,1.4,0.5,2.8,1.6,4.2c1,1.4,2.4,2.4,3.9,3.2c1,0.5,2,0.8,3.1,1
				c1.2,0.2,2.7,0.4,4.5,0.6c0.3,0,1.1,0.2,2.4,0.3c1.3,0.2,2.5,0.4,3.7,0.8C143.1-833,144.1-832.6,144.9-832.1L144.9-832.1z"/>
			<path id="path881" class="st1" d="M208.3-810.1c2.3,0,4.5-0.4,6.6-1.3c2.1-0.9,3.9-2.2,5.5-3.8c1.6-1.6,2.8-3.4,3.6-5.5
				c0.9-2.1,1.3-4.3,1.3-6.6v-27.7h-3.1v27.7c0,1.9-0.4,3.7-1.1,5.5c-0.7,1.7-1.7,3.2-2.9,4.5c-1.3,1.3-2.8,2.4-4.5,3.1
				c-1.7,0.7-3.5,1-5.3,1c-1.8,0-3.6-0.3-5.3-1c-1.7-0.7-3.2-1.8-4.5-3.1c-1.3-1.3-2.3-2.8-3-4.5c-0.7-1.7-1-3.6-1-5.5v-27.7h-3.1
				v27.7c0,2.3,0.4,4.5,1.2,6.6c0.9,2.1,2.1,3.9,3.7,5.5c1.6,1.6,3.4,2.9,5.5,3.8C203.9-810.5,206-810.1,208.3-810.1z"/>
			<path id="path883" class="st1" d="M292.6-810.6L274.1-833h5.5c3.4,0,6.1-0.4,8.2-1.3c1.6-0.7,2.9-1.8,4-3.3
				c1.1-1.5,1.7-3.1,1.7-4.9c0-1.6-0.5-3.1-1.4-4.5c-1-1.5-2.3-2.6-4.1-3.6c-1.8-0.9-3.8-1.4-6.2-1.4h-12.5v41.4h-3.1v-44.5h15.5
				c2.1,0,4.1,0.3,5.9,1c1.8,0.6,3.4,1.6,4.8,2.8c1.3,1.2,2.3,2.5,3,4c0.7,1.5,1.1,3.1,1.1,4.7c0,2.5-0.8,4.8-2.3,6.8
				c-1.5,2-3.3,3.4-5.3,4.2c-1.4,0.6-2.8,1-4.2,1.2c-1.3,0.1-2.7,0.2-4.2,0.2l16.1,19.5H292.6z"/>
			<path id="path885" class="st1" d="M342.3-821.9l-5.3,11.3h-3.4l21-45.1l19.8,45.1H371l-5-11.3H342.3z M354.4-848L343.7-825h20.9
				L354.4-848z"/>
		</g>
		<g id="g22" transform="translate(301.35639,957.83861)">
			<path id="path24" class="st1" d="M72.2,33.7l0,3.3l-83.2,0.8v-3.3L72.2,33.7z"/>
		</g>
		<g id="g26" transform="translate(238.36519,960.33661)">
			<path id="path28" class="st1" d="M32.5,35.3l-270.6,2.4l0-3.3L32.5,32V35.3z"/>
		</g>
		<g id="g30" transform="translate(73.37449,940.33861)">
			<path id="path32" class="st1" d="M-71.5,22.7l0-3.3l190.8-1.7v3.3L-71.5,22.7z"/>
		</g>
		<g id="g34" transform="translate(302.35639,936.33861)">
			<path id="path36" class="st1" d="M72.8,20.1l0,3.3l-163,1.5v-3.3L72.8,20.1z"/>
		</g>
		<g id="g38" transform="translate(230.36519,914.99001)">
			<path id="path40" class="st1" d="M27.5,6.7l117.4-1.1l0,3.3L27.5,10V6.7z"/>
		</g>
		<g id="g42" transform="translate(73.37449,918.33861)">
			<path id="path44" class="st1" d="M-71.5,8.8l0-3.3l236.4-2.1v3.3L-71.5,8.8z"/>
		</g>
		<g id="g46" transform="translate(72.37449,898.33861)">
			<path id="path48" class="st1" d="M-72.1-3.8l0-3.3l314.7-2.8v3.3L-72.1-3.8z"/>
		</g>
		<g id="g50" transform="translate(277.36519,894.55541)">
			<path id="path52" class="st1" d="M57.1-6.2l39.1-0.4l0,3.3L57.1-2.9V-6.2z"/>
		</g>
	</g>
</g>
</svg>
