<?xml version="1.0" encoding="utf-8"?>
<!-- Generator: Adobe Illustrator 25.4.1, SVG Export Plug-In . SVG Version: 6.00 Build 0)  -->
<svg version="1.1" id="Capa_1" xmlns="http://www.w3.org/2000/svg" xmlns:xlink="http://www.w3.org/1999/xlink" x="0px" y="0px"
	 viewBox="0 0 500 500" style="enable-background:new 0 0 500 500;" xml:space="preserve">
<style type="text/css">
	.st0{fill:#B0B7C3;}
</style>
<g>
	<path class="st0" d="M155.1,399.8c-0.5-3.4-0.4-3.6,2.9-3.6c3.4,0,6.8-0.2,10.2,0c5,0.3,7.1-2.7,7.5-7c0.4-4.3,0.5-8.6,0.5-12.9
		c0-36.9,0-73.8,0.1-110.7c0-5.5-5.7-12.8-12.1-12.1c-2.4,0.3-4.9,0-7.4,0.1c-1.4,0-2-0.6-1.8-1.9c0.1-0.6,0.3-1.1,0.3-1.7
		c0-1.1-0.4-2.9,0.1-3.2c1-0.6,2.4-0.5,3.7-0.5c3.1-0.2,6.2-0.1,9.2-0.6c3.8-0.6,8.1-7.1,8-11.1c-0.1-39.9,0-79.9-0.1-119.8
		c0-3.1-0.1-6.4-2.2-9.1c-1.2-1.5-2.6-2.1-4.5-2.1c-3.8,0-7.5,0-11.3,0c-3.4,0-3.4,0-3.2-3.7c0.7,0,1.4,0,2.1,0
		c13.8,0,27.7,0,41.5,0c2.3,0,3.4,0.8,4.2,3c2.5,7.1,5.2,14.2,7.9,21.3c1.7,4.4,3.4,8.8,5.2,13.2c1.8,4.5,3.6,9,5.4,13.6
		c1.8,4.5,3.6,9,5.4,13.6c1.7,4.4,3.3,8.8,5.1,13.2c1.8,4.5,3.6,9.1,5.4,13.6c1.5,3.9,3,7.9,4.6,11.8c2.2,5.3,4.5,10.6,6.7,15.9
		c0.6,1.4,1,2.8,1.6,4.5c0.5-1.3,0.9-2.2,1.2-3.2c2.1-5.4,4.2-10.8,6.2-16.2c1.9-5,3.9-10,5.9-15c1.6-4.1,3.2-8.1,4.8-12.2
		c1.9-4.8,3.7-9.6,5.6-14.4c1.6-4,3.1-8,4.7-12c1.9-4.8,3.8-9.6,5.7-14.3c1.7-4.2,3.4-8.4,5-12.6c1.7-4.5,3.4-9,5.1-13.4
		c1.2-2.9,2.3-5.9,3.7-8.7c0.3-0.7,1.4-1.5,2.2-1.5c14.7-0.1,29.4-0.1,44.1,0c0.1,0,0.3,0.1,0.4,0.1c0.8,3.2,0.5,3.5-2.6,3.5
		c-3.5,0-7,0-10.4,0c-5.2,0-7.3,1.9-7.5,7.2c-0.2,5.8-0.4,11.5-0.4,17.3c0,35.2,0,70.5,0,105.7c0,6.1,5.8,13.2,12.5,12.5
		c2.3-0.2,4.6,0,7,0c1.1,0,1.9,0.2,1.9,1.5c0.1,1.4,0.2,2.7,0.1,4.1c-0.1,1.4-0.9,1.8-2.3,1.8c-3.4,0-6.8,0.1-10.1,0.4
		c-4.6,0.5-9.1,6.8-9.1,11.4c0,15.7,0,31.4,0,47.1c0,23.9,0,47.9,0,71.8c0,2.5,0.5,5.1,1,7.6c0.7,3,2.4,4.2,5.6,4.2
		c3.8,0,7.7,0,11.5,0c3.3,0,3.4,0.1,2.9,3.6c-0.6,0-1.2,0.1-1.9,0.1c-14.1,0-28.1,0-42.2,0c-1.6,0-2.4-0.5-3-2
		c-2.2-6.1-4.5-12.2-6.9-18.3c-1.9-4.8-3.9-9.6-5.8-14.4c-1.7-4.3-3.3-8.7-5-13.1c-1.7-4.4-3.5-8.8-5.2-13.1
		c-1.2-2.9-2.4-5.7-3.5-8.6c-2.4-6.1-4.8-12.3-7.1-18.4c-1.6-4.3-3.3-8.5-4.9-12.8c-1.7-4.5-3.5-9-5.3-13.4
		c-1.3-3.1-2.7-6.2-4.1-9.5c-2,5.3-4,10.4-6,15.6c-1.9,4.9-3.7,9.9-5.7,14.8c-1.3,3.4-2.8,6.8-4.1,10.2c-2.2,5.6-4.3,11.2-6.5,16.8
		c-1.5,3.9-3.1,7.9-4.6,11.8c-1.9,5-3.9,10-5.8,15c-1.6,4-3.1,8-4.7,12c-2.2,5.3-4.5,10.5-6.6,15.8c-1.2,3-2.2,6.2-3.2,9.3
		c-0.5,1.5-1.4,2.4-3.2,2.3c-14.5,0-29,0-43.5,0C155.7,400,155.4,399.9,155.1,399.8z M203.6,172.4c-0.2,0-0.4,0.1-0.5,0.1
		c0,2.5,0,5,0,7.6c0.1,20.3,0.3,40.6,0.4,60.9c0,0.3,0,0.6,0,0.9c0.5,3.8,1.2,4.5,5.1,4.5c3.8,0,7.5,0,11.3,0c4.5,0,4.5,0,4.5,4.4
		c0,2.8-0.1,2.9-3,2.9c-4.7,0-9.4,0-14.1,0c-1.9,0-3.1,0.7-3.3,2.6c-0.4,4.9-0.9,9.9-0.9,14.8c-0.1,18.1,0,36.2,0,54.2
		c0,0.7,0,1.5,0,2.2c1.5-2.4,2.6-4.8,3.6-7.3c1.2-3.1,2.2-6.3,3.5-9.4c2.3-5.6,4.9-11.1,7.2-16.6c1.7-4.2,3.3-8.4,5-12.6
		c1.8-4.5,3.7-8.9,5.4-13.3c2.3-5.8,4.5-11.6,6.8-17.4c0.2-0.6,0.2-1.4,0-1.9c-1.2-3.1-2.6-6.1-3.9-9.2c-1.5-3.6-2.9-7.2-4.4-10.7
		c-1.9-4.7-3.8-9.4-5.7-14.1c-1.5-3.6-3-7.3-4.5-10.9c-2.2-5.5-4.3-10.9-6.5-16.4C207.7,182.6,205.6,177.5,203.6,172.4z
		 M296.1,327.3c0.2-0.1,0.3-0.1,0.5-0.2c0-0.1,0.1-0.1,0.1-0.2c-0.1-22.8-0.3-45.6-0.4-68.5c0-0.1,0-0.1,0-0.2
		c-0.4-3.6-1.5-4.5-5.1-4.5c-3.8,0-7.7,0-11.5,0c-4.3,0-4.3,0-4.3-4.2c0-3.1,0-3.1,3.2-3.1c4.4,0,8.8,0,13.3,0
		c2.5,0,3.7-0.7,3.9-3.1c0.5-4.7,0.9-9.4,0.9-14.1c0.1-18,0-36,0-54c0-0.7,0-1.5,0-2.2c-1.5,2.2-2.5,4.4-3.5,6.6
		c-1.5,3.5-2.9,7-4.3,10.6c-1.9,4.7-3.9,9.4-5.7,14.1c-1.3,3.2-2.3,6.6-3.6,9.8c-2.2,5.3-4.6,10.4-6.8,15.7
		c-2.5,6.2-4.9,12.5-7.3,18.8c-0.4,1-0.3,2.3,0,3.2c1.1,3,2.5,6,3.7,9c1.8,4.5,3.6,9.1,5.4,13.6c2.3,5.7,4.6,11.4,6.9,17.1
		c1.1,2.7,2.3,5.3,3.4,7.9c1.9,4.6,3.7,9.3,5.5,14C292.4,317.9,294.3,322.6,296.1,327.3z M250,259.1c0.9-2.2,1.5-4.2,2.4-6
		c1-2.1,1.2-3.9,0-6.1c-1-1.8-1.6-3.8-2.4-5.9c-0.9,1.8-1.9,3.4-2.5,5.1c-0.6,1.5-1.3,3.4-1,4.8C247.2,253.6,248.7,256.1,250,259.1z
		"/>
</g>
</svg>
