<?xml version="1.0" encoding="utf-8"?>
<!-- Generator: Adobe Illustrator 25.4.1, SVG Export Plug-In . SVG Version: 6.00 Build 0)  -->
<svg version="1.1" id="Capa_1" xmlns="http://www.w3.org/2000/svg" xmlns:xlink="http://www.w3.org/1999/xlink" x="0px" y="0px"
	 viewBox="0 0 1000 300" style="enable-background:new 0 0 1000 300;" xml:space="preserve">
<style type="text/css">
	.st0{fill:#B0B7C3;}
</style>
<g>
	<path class="st0" d="M832.4,162.8c-23.5,0-47,0-70.6,0c-1.3,0-1.7-0.4-1.6-1.6c0.1-3.1,0.1-6.2,0-9.4c0-1.2,0.3-1.8,1.6-1.7
		c0.7,0,1.3,0,2,0c43,0,86,0.1,129.1-0.1c6.1,0,12-1.2,17.3-4.7c4.9-3.2,8.6-7.4,10.8-12.9c0-0.1,0-0.1,0-0.2
		c0.4-3.6,1.3-7.3,0.9-10.9c-0.4-4.2-1.7-8.5-4.6-11.9c-0.9-1.1-1.5-2.6-2.6-3.3c-2.9-2.1-5.5-4.7-9.3-5.5c-2.8-0.5-5.5-1.6-8.3-2.4
		c-0.6-0.2-1.2-0.1-1.8-0.1c-44.3,0-88.7,0-133,0c-1.9,0-2.4-0.5-2.3-2.3c0.2-3.1,0.1-6.2,0-9.4c-0.1-1.7,0.6-2.1,2.2-2.1
		c18.4,0,36.8,0,55.3,0c26.9,0,53.9,0,80.8,0.1c2.7,0,5.5,0.9,8.2,1.6c2.4,0.6,4.6,1.3,7,1.9c2.7,0.7,5,2,7.1,3.7
		c1.7,1.3,3.4,2.6,4.9,4.1c3.3,3.2,5.7,7.1,7.4,11.3c1.3,3.2,2.1,6.5,2.8,10c0.7,3.7,0.5,7.2,0.6,10.8c0,2-0.9,4-1.4,6
		c-0.3,1.4-0.6,2.8-1.1,4c-1.2,2.6-2.4,5.3-3.9,7.8c-1.3,2.2-2.8,4.4-4.6,6.2c-1.6,1.6-3.7,2.8-5.7,4.1c-2,1.3-4.1,2.6-6.2,3.5
		c-2.4,1-4.9,1.6-7.4,2.3c-6.3,1.9-12.8,0.7-19.2,0.8C868.7,162.9,850.5,162.8,832.4,162.8C832.4,162.8,832.4,162.8,832.4,162.8z"/>
	<path class="st0" d="M324.4,142.1c1,0.4,2,0.8,3,1.1c4.6,1.4,9.3,2.7,13.6,5c1.9,1,4.2,1.2,6.3,1.9c1.8,0.6,3.5,1.4,5.2,2
		c2.1,0.8,4.3,1.4,6.5,2.2c3.4,1.3,7.2,1.2,10.3,3.3c1,0.7,2.4,0.9,3.7,1.1c1.9,0.3,1.1,1.7,1.2,2.7c0.2,1.1-0.4,1.5-1.5,1.5
		c-10.8,0-21.6,0-32.4,0c-1.1,0-2.3-0.5-3.3-0.9c-2.6-1-5.2-2.2-7.9-3.2c-3.7-1.5-7.5-3-11.2-4.3c-3-1-6.1-1.8-9.1-2.8
		c-2.6-0.9-5.2-2.1-7.8-3.1c-2-0.7-4.1-1.3-6.2-2c-2.2-0.7-4.4-1.7-6.7-2.2c-2.5-0.6-4.6-2.3-7.4-2.3c-1.9,0-3.8-1-5.6-1.6
		c-2.2-0.8-4.4-1.7-6.7-2.5c-3.3-1.2-6.5-2.3-9.8-3.5c-2.3-0.8-4.6-1.7-6.8-2.6c-1.7-0.7-1.6-2.2-1.5-3.7c0.1-1.5,1.3-1.1,2.2-1.1
		c32,0,64.1,0,96.1,0c3,0,5.6-1.1,7.9-3.2c2.1-1.9,3.6-4,4.7-6.6c0.3-0.7,0.1-1.7,0.3-2.4c0.9-2.8,0-5.5-1.1-7.8
		c-0.9-2-1.9-4.4-4.4-5.2c-1.3-0.5-2.5-1.4-3.9-1.9c-2-0.6-4-1.5-6-1.5c-45.2-0.1-90.5-0.1-135.7,0c-1.8,0-2.4-0.4-2.3-2.3
		c0.2-3.2,0.1-6.4,0-9.5c-0.1-1.6,0.5-2,2-2c21.9,0,43.8,0,65.7,0c24.1,0,48.2-0.1,72.3,0.1c2.8,0,5.6,0.9,8.3,1.6
		c2.6,0.8,5.2,1.9,7.7,2.9c0.4,0.1,0.7,0.5,1,0.8c0.7,0.7,1.4,1.6,2.2,2.1c3.7,2.6,4.9,6.7,6.7,10.5c0.8,1.7,0.7,3.9,1.1,5.8
		c0.2,1.3,0.9,2.5,0.8,3.7c-0.3,3.1-1.2,6.1-1.5,9.1c-0.3,3.4-2.1,6.2-3.8,8.9c-1.3,2-3.3,3.6-5.1,5.3c-0.8,0.8-1.9,1.3-3,1.9
		c-1.9,1.1-3.8,2.3-5.8,3.1c-1.6,0.6-3.4,1-5.1,1.1c-8.5,0.1-16.9,0-25.4,0c-0.6,0-1.2,0.2-1.8,0.2
		C324.4,141.7,324.4,141.9,324.4,142.1z"/>
	<path class="st0" d="M33.3,162.7c0-1.3,0-2.4,0-2.9c3-2.3,5.7-4.3,8.4-6.4c2.2-1.7,4.6-3.3,6.7-5.1c2-1.6,3.7-3.5,5.7-5.2
		c1.6-1.4,3.4-2.7,5.1-4c0.3-0.2,0.6-0.4,0.9-0.6c3.4-2.8,6.8-5.7,10.2-8.5c2.8-2.3,5.6-4.5,8.4-6.7c2.8-2.1,5.7-4.1,8.6-6.2
		c1.5-1.1,3-2.3,4.4-3.5c2-1.7,3.9-3.4,6-5c1.8-1.4,3.8-2.7,5.7-4.1c0.1-0.1,0.3-0.2,0.4-0.3c2.1-1.9,4.2-3.8,6.4-5.6
		c2-1.6,4.2-3,6.2-4.6c1.5-1.1,2.9-2.4,4.4-3.5c2.5-1.9,4.8-4.1,7.4-5.7c0.8-0.5,2.7-0.2,3.7,0.4c2.6,1.7,5.1,3.8,7.5,5.8
		c1.6,1.3,3.2,2.6,4.8,3.9c2.4,1.9,4.8,3.7,7.2,5.6c0.1,0.1,0.2,0.1,0.3,0.2c2.2,1.9,4.3,3.8,6.6,5.7c1.5,1.2,3.2,2.2,4.7,3.3
		c0.2,0.2,0.5,0.3,0.7,0.5c2.2,1.9,4.3,3.9,6.6,5.7c2.8,2.2,5.7,4.1,8.6,6.1c0.1,0.1,0.3,0.2,0.4,0.4c2.2,1.9,4.3,3.8,6.6,5.7
		c2.9,2.4,5.9,4.8,8.9,7.2c1.7,1.4,3.4,2.9,5.2,4.3c2.4,1.9,4.9,3.7,7.3,5.6c0.1,0.1,0.3,0.2,0.4,0.4c2.1,1.9,4.2,3.8,6.5,5.5
		c2.8,2.2,5.9,4.2,8.7,6.4c1.3,1.1,3.1,2.1,2.7,4.3c-0.1,0.4-0.7,1-1,1c-6.1,0.1-12.1,0-18.2,0c-0.4,0-0.8-0.2-1.1-0.4
		c-1.9-1.5-3.7-3.1-5.6-4.6c-2-1.6-4.1-3-6.1-4.5c-1.6-1.2-3.1-2.4-4.6-3.6c-2.1-1.8-4.2-3.7-6.4-5.4c-1.3-1.1-2.8-1.9-4.2-2.8
		c-0.2-0.1-0.4-0.2-0.6-0.3c-2-1.7-3.9-3.4-5.9-5c-2.2-1.8-4.5-3.4-6.7-5.1c-0.2-0.2-0.4-0.4-0.7-0.6c-2.4-1.9-4.9-3.6-7.2-5.6
		c-1.7-1.5-3.2-3.3-4.9-4.7c-2.2-1.9-4.7-3.6-7-5.4c-1.7-1.3-3.3-2.7-5-4c-2.1-1.6-4.2-3.2-6.3-4.8c-0.6-0.4-1.1-1-1.6-1.5
		c-2.1-2.2-3.4-2.3-5.8-0.4c-3.1,2.6-6.3,5.2-9.4,7.8c-2.8,2.3-5.6,4.6-8.4,6.7c-3,2.3-6.1,4.4-9.1,6.6c-0.6,0.5-0.8,1.4-1.4,2
		c-1.3,1.1-2.6,2.1-4,3.2c-2.3,1.7-4.6,3.5-6.8,5.2c-0.3,0.3-0.6,0.6-0.9,0.8c-3.1,2.3-6.2,4.6-9.3,6.9c-0.2,0.2-0.5,0.4-0.7,0.6
		c-2.5,2.1-4.9,4.4-7.4,6.4c-3,2.4-6.3,4.5-9.4,6.9c-1.9,1.4-3.6,3.1-5.4,4.5c-0.8,0.6-1.9,1.1-2.8,1.1c-5.6,0.1-11.3,0.1-16.9,0.1
		C34.4,162.8,33.9,162.7,33.3,162.7z"/>
	<path class="st0" d="M734.6,162.8c-1.9,0-3.7-0.1-5.6,0c-2.3,0.1-4.1-0.1-5.9-2c-2.3-2.4-5.2-4.1-7.7-6.1c-2.7-2.1-5.3-4.3-8-6.3
		c-2.9-2.2-5.9-4.3-8.9-6.4c-0.1-0.1-0.2-0.1-0.3-0.2c-2.1-1.9-4.3-3.8-6.5-5.6c-3-2.5-6.1-5-9.2-7.5c-2.4-1.9-4.8-3.7-7.3-5.5
		c-3.4-2.6-6.9-5.2-10.3-7.7c-1.3-1-2.7-2-3.9-3c-2-1.6-3.8-3.4-5.8-4.9c-2-1.6-4.1-2.9-6.1-4.5c-0.9-0.7-1.4-0.3-2.2,0.3
		c-3.6,2.8-7.2,5.5-10.8,8.3c-1.5,1.2-3,2.3-4.4,3.5c-2.1,1.7-4.1,3.6-6.2,5.3c-1.7,1.3-3.5,2.5-5.3,3.8c-0.1,0.1-0.3,0.2-0.5,0.3
		c-2.1,1.8-4.2,3.7-6.3,5.4c-2.1,1.7-4.2,3.2-6.3,4.7c-1.3,1-2.6,2-3.9,3c-2,1.7-3.9,3.4-6,5.1c-2.9,2.4-5.8,4.7-8.7,7
		c-2.5,2-5.1,3.9-7.6,5.8c-2.9,2.3-5.7,4.6-8.6,6.8c-0.5,0.4-1.2,0.5-1.8,0.5c-5.6,0-11.3,0-16.9,0c-0.6,0-1.7-0.3-1.8-0.6
		c-0.2-0.7-0.1-1.9,0.4-2.3c2.1-1.9,4.3-3.6,6.6-5.4c0.3-0.2,0.7-0.3,0.9-0.5c2.2-1.9,4.3-3.9,6.6-5.7c3-2.3,6.2-4.5,9.2-6.7
		c0.1-0.1,0.3-0.2,0.4-0.4c2.2-1.9,4.4-3.9,6.7-5.8c2.6-2.1,5.3-4.1,7.9-6.2c2.7-2.1,5.4-4.4,8.2-6.5c2.8-2.1,5.7-4.2,8.6-6.2
		c0.2-0.1,0.4-0.3,0.6-0.4c2.2-1.9,4.3-3.9,6.6-5.6c3.1-2.4,6.5-4.3,9.3-6.9c2-1.9,4.5-3.1,6.1-5.6c1.1-1.8,3.4-3,5.2-4.4
		c2.2-1.6,4.5-2.9,6.7-4.5c1.7-1.3,3.2-3,5-4.2c0.6-0.4,2-0.4,2.7,0c1.2,0.6,2.1,1.6,3.2,2.4c2.1,1.6,4.2,3.2,6.3,4.7
		c1.2,0.9,2.5,1.8,3.6,2.8c2.2,1.8,4.3,3.8,6.5,5.5c2,1.6,4,3,6.1,4.5c0.3,0.2,0.5,0.5,0.8,0.7c2.3,1.8,4.7,3.5,7,5.3
		c1.5,1.2,3.1,2.4,4.6,3.7c2.1,1.8,4.2,3.7,6.4,5.4c1.3,1.1,2.8,1.9,4.2,2.8c0.2,0.1,0.4,0.2,0.6,0.3c2.2,1.9,4.2,3.8,6.5,5.6
		c2,1.6,4.1,3.1,6.2,4.6c0.3,0.2,0.5,0.5,0.8,0.7c2.3,1.8,4.7,3.6,7,5.3c0.1,0.1,0.3,0.2,0.4,0.4c3.6,3,7.1,6,10.8,9
		c3.8,3.1,7.6,6.2,11.6,9c1.3,0.9,2.6,1.5,2.5,3.4c-0.1,1.3-0.4,1.8-1.8,1.8C740.1,162.7,737.3,162.8,734.6,162.8
		C734.6,162.8,734.6,162.8,734.6,162.8z"/>
	<path class="st0" d="M555,84.6c0,2.2,0,4.5,0,6.7c0,1.7-0.1,3.5,0,5.2c0.1,1.7-0.7,1.8-2,1.8c-17.2,0-34.3,0-51.5,0
		c-6.7,0-13.4,0-20.2,0c-1.7,0-2.1,0.5-2.1,2.2c0.1,20,0,40,0,59.9c0,2.5,0,2.5-2.6,2.5c-3.1,0-6.2-0.1-9.4,0
		c-1.3,0-1.7-0.4-1.7-1.7c0-20.1,0-40.2,0-60.3c0-2.6,0-2.6-2.7-2.6c-23.6,0-47.3,0-70.9,0c-2.7,0-3-0.4-3-3c0-2.7,0-5.4,0-8.1
		c0-2,0.7-2.7,2.7-2.7c53.9,0,107.7,0,161.6,0C553.8,84.5,554.2,84.6,555,84.6z"/>
	<path class="st0" d="M953,123.4c0-12.2,0-24.3,0-36.5c0-2.4,0-2.4,2.4-2.4c2.7,0,5.4,0,8.1,0c1.7,0,2.4,0.9,2.4,2.4
		c0.1,2.1,0,4.2,0,6.3c0,22.3,0,44.6,0,66.9c0,1.6-0.4,2.1-2,2.1c-3-0.1-6-0.1-9,0c-1.6,0.1-2-0.5-2-2.1
		C953,147.9,953,135.6,953,123.4z"/>
	<path class="st0" d="M248.1,202.4c-0.8,2.3-1.4,4.7-2.4,7c-0.4,1-0.4,1.5,0.5,2.1c0.9,0.5,1.7,1.1,2.6,1.5c1.1,0.5,1.8,1.2,1.2,2.3
		c-0.2,0.3-1.6,0.2-2.3-0.1c-1.3-0.6-2.5-1.4-3.6-2.3c-0.9-0.7-1.6-0.7-2.6-0.4c-3.6,1-7.2,1.1-10-1.8c-1.1-1.1-1.7-2.7-2.2-4.2
		c-1-3.3-0.8-6.7,0.5-9.9c1.6-3.9,5.4-5.7,10.1-5.2c4,0.5,6.8,3.1,7.5,7.3c0.2,1.1,0.3,2.3,0.4,3.4
		C247.9,202.2,248,202.3,248.1,202.4z M244.9,202.6c-0.3-1.8-0.5-3.1-0.8-4.5c-0.6-2.4-2.4-4-4.8-4.2c-3.2-0.3-5.2,0.6-6.5,3.1
		c-1.5,2.9-1.4,5.9-0.8,8.9c0.6,2.8,2.2,4.4,5,4.9c2.8,0.4,5.2-0.7,6.4-3.2C244.2,205.9,244.5,204,244.9,202.6z"/>
	<path class="st0" d="M870.8,202.5c0.5-2.1,0.7-4.1,1.5-5.9c1.6-3.8,5.2-5.6,9.9-5.1c3.9,0.4,6.4,2.5,7.4,6.5
		c1,3.9,0.8,7.8-1.3,11.3c-1.9,3.2-5,4-8.5,3.9c-3.2-0.1-6-1.3-7.3-4.3C871.6,206.8,871.3,204.6,870.8,202.5z M887.4,202.7
		c-0.3-1.9-0.5-3.3-0.8-4.7c-0.6-2.4-2.5-3.9-4.9-4.1c-3.1-0.3-5.2,0.7-6.4,3.2c-1.6,3.4-1.4,6.8-0.2,10.3c0.8,2.4,2.8,3.4,5.2,3.4
		c2.4,0.1,4.6-0.6,5.6-3C886.6,206.1,886.9,204.2,887.4,202.7z"/>
	<path class="st0" d="M135.8,202.4c0-2.8,0-5.6,0-8.4c0-2,0.4-2.4,2.5-2.4c2.1,0.1,4.2,0,6.2,0.4c2.1,0.4,3.7,1.8,4.1,4
		c0.5,2.3-0.1,4.3-2.2,5.7c-1.1,0.7-0.9,1.2-0.3,2.2c1.4,2.5,2.5,5.3,3.7,7.9c0.1,0.2-0.5,1-0.6,1c-0.8-0.2-1.9-0.3-2.2-0.8
		c-0.9-1.6-1.4-3.3-2-5c-0.9-2.4-2.4-3.5-4.4-3.6c-1.3,0-2,0.4-1.9,1.8c0.1,2,0,4,0,5.9c0,0.9-0.1,1.7-1.3,1.7
		c-1.2,0-1.5-0.7-1.5-1.7C135.9,208.3,135.8,205.4,135.8,202.4z M141.1,194c-0.8,0.2-2.4-0.6-2.5,1.3c-0.1,1.5,0,3,0,4.5
		c0,0.4,0.2,0.9,0.5,1.1c1.4,1.1,5.4,0,6.2-1.7C146.8,196.4,144.9,194,141.1,194z"/>
	<path class="st0" d="M328.6,199.7c0-2.1,0-4.2,0-6.3c0-1.1,0.2-2,1.5-2c1.3,0,1.6,0.9,1.6,1.9c0,3.5,0,7.1,0,10.6
		c0,0.8,0.1,1.7,0.2,2.5c0.3,2.2,1.5,3.5,3.3,3.9c2.7,0.6,4.8,0,5.8-2c0.6-1.1,0.7-2.5,0.7-3.8c0.1-3.7,0-7.3,0.1-11
		c0-0.7,0.6-1.8,1.2-2.1c1-0.4,1.9,0.1,1.9,1.4c0,4.4,0.2,8.9-0.1,13.3c-0.2,3.1-2.4,6.4-6.7,6.8c-6.2,0.5-9.5-2.4-9.5-8.5
		C328.6,203,328.6,201.3,328.6,199.7z"/>
	<path class="st0" d="M55.2,213c-0.3-0.3-1-0.8-1.3-1.5c-1.8-4.8-0.8-4.1-6.1-4.1c-4.7,0-3.9-0.8-5.6,3.7c-0.2,0.4-0.3,1.1-0.6,1.3
		c-0.6,0.3-1.4,0.3-2.1,0.5c-0.1-0.5-0.4-1.1-0.2-1.6c2.2-6,4.4-12,6.6-18.1c0.4-1.3,1.3-1.8,2.4-1.5c0.8,0.2,1.7,0.9,2,1.7
		c2.2,5.9,4.3,11.8,6.5,17.7C57.1,212.1,57.3,213,55.2,213z M44.2,205.2c2.3,0,4.3,0,6.2,0c0.3,0,0.8-0.8,0.7-1
		c-0.9-2.9-1.9-5.7-2.9-8.5c-0.2,0-0.5-0.1-0.7-0.1C46.5,198.6,45.4,201.7,44.2,205.2z"/>
	<path class="st0" d="M601.6,202.3c0-2.8,0-5.5,0-8.3c0-2.1,0.5-2.6,2.5-2.6c2.5,0,5,0,7.5,0c1,0,1.9,0.1,1.9,1.4
		c0,1.3-1,1.2-1.8,1.2c-1.8,0-3.6,0-5.4,0c-1.1,0-1.7,0.3-1.6,1.5c0.1,6.2-0.7,5,4.9,5.2c1,0,2.7-0.6,2.7,1.1c0,1.7-1.6,1.4-2.8,1.4
		c-5.7,0.1-4.8-0.7-4.9,4.8c0,2.4,0,2.4,2.4,2.4c1.6,0,3.2,0,4.9,0c1,0,1.6,0.2,1.7,1.4c0,1.2-0.7,1.2-1.6,1.2c-2.8,0-5.6,0-8.4,0
		c-1.5,0-2.1-0.6-2-2C601.7,208.1,601.6,205.2,601.6,202.3z"/>
	<path class="st0" d="M964.8,195.1c-1.8-0.4-3.5-0.8-5.2-1.1c-1.6-0.2-2.7,0.8-3.1,2.2c-0.5,1.4,0.5,2.4,1.6,3.1
		c1.7,1,3.4,1.8,5.1,2.6c2,0.9,3,2.7,3.4,4.5c0.3,1.2-0.7,2.8-1.4,4c-1.1,1.8-2.9,2.8-5,2.6c-2-0.2-4.1-0.5-6.1-1.1
		c-0.5-0.1-0.7-1.4-1-2.2c0.8,0,1.5-0.1,2.3,0c1.7,0.2,3.5,0.8,5.2,0.6c2.7-0.3,3.6-3.3,1.6-5.1c-1.4-1.2-3.1-1.9-4.8-2.7
		c-2.8-1.4-4.1-3.6-3.8-6.5c0.3-2.6,2-3.9,4.1-4.4c1.8-0.4,3.8,0.1,5.6,0.4C965.1,192.4,965.4,193.6,964.8,195.1z"/>
	<path class="st0" d="M692.6,202.7c0-3.9,0.8-7.6,4.4-9.9c3.2-2,6.5-2,9.9-0.3c0.5,0.2,1,0.8,1.2,1.3c0.2,0.5,0,1.1,0,1.7
		c-0.5-0.1-1.2,0.1-1.6-0.2c-3.6-2.6-7.9-1.4-9.2,1.1c-1.3,2.5-2,5.1-1.4,7.9c0.5,2,0.8,4.1,2.8,5.2c2.6,1.5,5.2,1.2,7.8-0.3
		c0.4-0.2,1-0.2,1.6-0.3c0,0.7,0.2,1.5-0.2,2c-0.5,0.7-1.4,1.2-2.2,1.5c-6,2.2-12.1-0.1-12.9-7.2
		C692.8,204.4,692.7,203.5,692.6,202.7z"/>
	<path class="st0" d="M791.7,203.3c0-2.5-0.1-5,0-7.5c0-1.4-0.5-1.8-1.8-1.8c-1.1,0.1-2.2,0.1-3.2,0c-0.6-0.1-1.5-0.7-1.6-1.1
		c-0.2-1.1,0.7-1.4,1.6-1.4c2.8,0,5.6,0,8.4,0c1.4,0,2.8-0.2,4.1,0.1c0.6,0.1,1.1,0.9,1.7,1.4c-0.5,0.3-1.1,0.7-1.6,1
		c-0.1,0.1-0.2,0-0.4,0c-4.6,0.1-4.6,0.1-4.6,4.8c0,4.1,0,8.3,0,12.4c0,1,0,1.8-1.4,1.8c-1.3,0-1.5-0.7-1.5-1.7
		C791.7,208.6,791.7,206,791.7,203.3z"/>
	<path class="st0" d="M513.6,203.3c0-2.5-0.1-4.9,0-7.4c0.1-1.6-0.5-2-2-1.9c-1,0.1-2.1,0.1-3,0c-0.6-0.1-1.5-0.6-1.6-1.1
		c-0.2-1.1,0.7-1.4,1.6-1.4c2.5,0,4.9,0,7.4,0c1.7,0,3.4,0,5,0c1.1,0,1.9,0.4,1.8,1.5c-0.1,0.4-1.1,0.7-1.7,1.1
		c-0.1,0.1-0.4,0-0.5,0c-4.3,0-4.3,0-4.3,4.4c0,4.3,0,8.5,0,12.8c0,1,0,1.8-1.3,1.8c-1.3,0-1.5-0.7-1.4-1.8
		C513.6,208.6,513.6,206,513.6,203.3z"/>
	<path class="st0" d="M428.2,202.3c0,2.9,0,5.9,0,8.8c0,1.1-0.3,1.8-1.6,1.8c-1.4,0-1.5-0.8-1.5-1.9c0-5.9,0-11.7,0-17.6
		c0-1,0.1-2,1.4-2c1.4,0,1.7,0.9,1.7,2C428.2,196.5,428.2,199.4,428.2,202.3C428.2,202.3,428.2,202.3,428.2,202.3z"/>
</g>
</svg>
