<?xml version="1.0" encoding="utf-8"?>
<!-- Generator: Adobe Illustrator 25.4.1, SVG Export Plug-In . SVG Version: 6.00 Build 0)  -->
<svg version="1.1" id="Capa_1" xmlns="http://www.w3.org/2000/svg" xmlns:xlink="http://www.w3.org/1999/xlink" x="0px" y="0px"
	 viewBox="0 0 189.6 75" style="enable-background:new 0 0 189.6 75;" xml:space="preserve">
<style type="text/css">
	.st0{fill:#B0B7C3;}
	.st1{fill:#231F20;}
</style>
<ellipse class="st0" cx="168.1" cy="37.5" rx="21.5" ry="21.5"/>
<g id="Pill">
	<path class="st1" d="M168.3,26.7c1.3,0.5,2.4,1.5,2.9,2.8c0.2-0.9-0.1-1.8-0.8-2.3C169.8,26.7,169,26.5,168.3,26.7z"/>
	<path class="st1" d="M174.4,36.8L174.4,36.8c0-0.8,0-6.6,0-7.4c0-0.9-0.3-1.9-0.7-2.7c-1.2-2.4-3.8-3.7-6.4-3.4
		c-2.6,0.3-4.7,2.1-5.4,4.6c-0.3,1.3-0.4,2.5-0.3,3.8v2c0,0.2,0,8.5,0,8.7l0,0c-0.1,1,0,1.9,0.1,2.9c0.6,3.5,4,5.8,7.4,5.2
		c0.1,0,0.2,0,0.3-0.1c2.5-0.5,4.5-2.5,4.9-5C174.5,42.6,174.6,39.7,174.4,36.8z M172.5,41.3h-9.2H163c0-2.8,0-10.2,0-11.4
		c0-0.5,0-1,0.1-1.5c0.5-2.3,2.6-3.9,5-3.9c2.3,0,4.4,1.6,4.9,3.9c0.2,1,0.1,6.7,0.2,8c0,1.6,0,4.2,0,4.7L172.5,41.3z"/>
</g>
<g id="Name">
	<path class="st0" d="M3,41.6c-0.9-0.5-1.7-1.3-2.2-2.3C0.3,38.2,0,37,0,35.8l0,0c0-1.2,0.2-2.4,0.8-3.5c0.5-1,1.3-1.8,2.2-2.3
		c1-0.6,2.2-0.8,3.4-0.8s2.4,0.2,3.4,0.8c0.9,0.5,1.7,1.3,2.2,2.3c0.5,1.1,0.8,2.3,0.8,3.5l0,0c0,1.2-0.2,2.4-0.8,3.5
		c-0.5,1-1.3,1.7-2.2,2.3c-1,0.6-2.2,0.8-3.4,0.8C5.2,42.5,4,42.2,3,41.6z M7.8,39c0.4-0.3,0.7-0.7,0.9-1.2C8.9,37.2,9,36.5,9,35.9
		l0,0c0-0.6-0.1-1.3-0.3-1.9c-0.2-0.5-0.5-0.9-0.9-1.2s-0.9-0.4-1.4-0.4s-1,0.1-1.4,0.4S4.3,33.5,4.1,34c-0.2,0.6-0.3,1.2-0.3,1.9
		l0,0c0,0.6,0.1,1.3,0.3,1.9C4.3,38.3,4.6,38.7,5,39c0.4,0.3,0.9,0.4,1.4,0.4S7.3,39.3,7.8,39z"/>
	<path class="st0" d="M14,32.5h3.6v1.7h0.1c0.1-0.5,0.3-1.1,0.7-1.5c0.4-0.3,0.9-0.5,1.4-0.5c0.1,0,0.3,0,0.4,0s0.3,0.1,0.4,0.1v3
		c-0.2-0.1-0.3-0.1-0.5-0.1s-0.4,0-0.5,0c-0.4,0-0.8,0.1-1.1,0.2c-0.3,0.1-0.5,0.4-0.7,0.7c-0.2,0.4-0.2,0.7-0.2,1.1v4.9H14L14,32.5
		L14,32.5z"/>
	<path class="st0" d="M22.5,42c-0.5-0.2-0.9-0.6-1.2-1c-0.3-0.5-0.4-1-0.4-1.6l0,0c0-0.6,0.1-1.1,0.5-1.6s0.8-0.8,1.4-1
		c0.7-0.3,1.4-0.4,2.2-0.5l4-0.3v2l-3.4,0.2c-0.3,0-0.6,0.1-0.8,0.2c-0.2,0.1-0.3,0.4-0.3,0.6l0,0c0,0.2,0.1,0.5,0.3,0.6
		c0.2,0.1,0.5,0.2,0.8,0.2s0.5,0,0.8-0.1c0.2-0.1,0.4-0.2,0.5-0.4c0.1-0.2,0.1-0.4,0.1-0.6v-3c0-0.3-0.1-0.5-0.3-0.7
		c-0.2-0.2-0.5-0.3-0.8-0.2c-0.3,0-0.6,0.1-0.9,0.2c-0.2,0.1-0.3,0.3-0.4,0.5v0.1h-3.2v-0.1c0-0.6,0.3-1.2,0.7-1.7
		c0.4-0.5,1-0.9,1.6-1.1c0.8-0.3,1.6-0.4,2.4-0.4s1.6,0.1,2.4,0.4c0.6,0.2,1.2,0.6,1.6,1.2c0.4,0.5,0.6,1.1,0.6,1.7v6.6h-3.6v-1.3
		l0,0c-0.2,0.3-0.4,0.6-0.7,0.8c-0.3,0.2-0.6,0.4-0.9,0.5c-0.4,0.1-0.7,0.2-1.1,0.2C23.7,42.4,23.1,42.3,22.5,42z"/>
	<path class="st0" d="M32,32.5h3.6v1.8h0.1c0.2-0.6,0.6-1.1,1.1-1.5c0.5-0.4,1.2-0.5,1.8-0.5c0.9-0.1,1.8,0.3,2.5,1
		c0.6,0.8,0.9,1.7,0.8,2.7v6.2h-3.6v-5.5c0-0.4-0.1-0.8-0.3-1.1c-0.3-0.3-0.6-0.4-1-0.4c-0.3,0-0.5,0.1-0.7,0.2
		c-0.2,0.1-0.4,0.3-0.5,0.6s-0.2,0.5-0.2,0.8v5.5H32C32,42.3,32,32.5,32,32.5z"/>
	<path class="st0" d="M45.6,45.1c-0.6-0.2-1.2-0.6-1.7-1.1c-0.4-0.4-0.6-0.9-0.7-1.5v-0.1h3.5l0,0c0.1,0.2,0.3,0.3,0.5,0.4
		c0.3,0.2,0.7,0.3,1,0.2c0.4,0,0.8-0.1,1.2-0.3c0.2-0.2,0.4-0.5,0.4-0.8v-1.7h-0.2c-0.1,0.3-0.4,0.6-0.6,0.8c-0.3,0.2-0.6,0.4-1,0.5
		c-0.4,0.1-0.8,0.2-1.3,0.2c-0.7,0-1.4-0.2-2-0.5c-0.6-0.4-1-0.9-1.3-1.6c-0.3-0.8-0.4-1.7-0.3-2.5l0,0c0-0.9,0.1-1.8,0.4-2.7
		c0.3-0.7,0.7-1.2,1.3-1.6c0.6-0.4,1.3-0.6,2.1-0.6c0.4,0,0.9,0.1,1.2,0.2c0.4,0.1,0.7,0.4,1,0.6c0.3,0.3,0.5,0.6,0.6,1h0.1v-1.7
		h3.6v9.4c0,0.7-0.2,1.3-0.6,1.8c-0.5,0.6-1.1,1-1.8,1.3c-0.9,0.3-1.8,0.5-2.8,0.5C47.3,45.5,46.4,45.4,45.6,45.1z M49,39.2
		c0.2-0.2,0.4-0.4,0.5-0.7c0.1-0.4,0.2-0.8,0.2-1.1l0,0c0-0.4-0.1-0.8-0.2-1.1s-0.3-0.5-0.5-0.7c-0.5-0.3-1.1-0.3-1.6,0
		c-0.2,0.2-0.4,0.4-0.5,0.7c-0.1,0.4-0.2,0.8-0.2,1.1l0,0c0,0.4,0.1,0.8,0.2,1.1c0.1,0.3,0.3,0.5,0.5,0.7
		C47.8,39.5,48.5,39.5,49,39.2z"/>
	<path class="st0" d="M56.8,41.8c-0.7-0.4-1.3-1-1.7-1.8c-0.4-0.8-0.6-1.8-0.6-2.7l0,0c0-0.9,0.2-1.9,0.6-2.7c0.4-0.7,1-1.3,1.7-1.7
		c0.8-0.4,1.7-0.6,2.6-0.6s1.8,0.2,2.6,0.6c0.7,0.4,1.3,1,1.7,1.7c0.4,0.8,0.6,1.7,0.6,2.6v1h-8.1v-2h6.5L61,38.1v-1.4
		c0-0.3-0.1-0.7-0.2-1s-0.3-0.5-0.5-0.7c-0.5-0.3-1.1-0.3-1.6,0c-0.2,0.2-0.4,0.4-0.5,0.6c-0.1,0.3-0.2,0.7-0.2,1V38
		c0,0.3,0.1,0.7,0.2,1s0.3,0.5,0.5,0.6c0.3,0.2,0.6,0.2,0.9,0.2s0.5,0,0.8-0.2c0.2-0.1,0.4-0.2,0.5-0.4c0.1-0.1,0.2-0.2,0.2-0.3l0,0
		h3.2V39c-0.1,0.3-0.2,0.7-0.4,1c-0.2,0.4-0.5,0.8-0.8,1.1c-0.4,0.4-0.9,0.6-1.4,0.8c-0.7,0.2-1.4,0.3-2.1,0.3
		C58.6,42.4,57.6,42.2,56.8,41.8z"/>
	<path class="st0" d="M69.1,29.5h3.7v12.7h-3.7V29.5z M71,36h2.9c0.5,0,1-0.1,1.4-0.5c0.4-0.4,0.6-0.9,0.5-1.4l0,0
		c0-0.5-0.1-1-0.5-1.4c-0.4-0.3-0.9-0.5-1.4-0.5H71v-2.8h3.8c0.9,0,1.8,0.2,2.6,0.6c0.7,0.4,1.2,0.9,1.6,1.6
		c0.4,0.7,0.6,1.6,0.6,2.4l0,0c0,0.9-0.2,1.7-0.6,2.5c-0.4,0.7-1,1.2-1.7,1.6c-0.8,0.4-1.7,0.6-2.6,0.6h-3.8L71,36L71,36z"/>
	<path class="st0" d="M80.7,32.5h3.6v9.7h-3.6V32.5z M81.2,31.1c-0.7-0.6-0.7-1.7,0-2.4l0,0c0.7-0.7,1.8-0.7,2.5,0
		c0.7,0.6,0.7,1.7,0.1,2.3c0,0,0,0-0.1,0.1C83.1,31.8,81.9,31.8,81.2,31.1z"/>
	<path class="st0" d="M85.7,29.5h3.6v12.7h-3.6V29.5z"/>
	<path class="st0" d="M90.7,29.5h3.6v12.7h-3.6V29.5z"/>
	<path class="st0" d="M102.5,29.5h3.5v3h-1.2l-2.5,9.7h-3.9L102.5,29.5z M101.8,37.1h6.2l0.8,2.6H101L101.8,37.1z M104.9,32.6v-3
		h2.3l4.1,12.7h-3.9L104.9,32.6z"/>
	<path class="st0" d="M112.3,32.5h3.6v1.8h0.1c0.1-0.4,0.4-0.7,0.6-1c0.3-0.3,0.6-0.5,1-0.7c0.4-0.2,0.8-0.2,1.2-0.2
		c0.7,0,1.5,0.2,2.1,0.6c0.6,0.4,1,1,1.3,1.7c0.3,0.9,0.5,1.8,0.4,2.8l0,0c0,0.9-0.1,1.9-0.4,2.8c-0.2,0.7-0.7,1.3-1.3,1.7
		s-1.3,0.6-2,0.6c-0.4,0-0.9-0.1-1.3-0.2c-0.4-0.1-0.7-0.4-1-0.6c-0.3-0.3-0.5-0.6-0.6-1h-0.1v4.8h-3.6L112.3,32.5z M118.3,39.3
		c0.2-0.2,0.4-0.5,0.5-0.8c0.1-0.4,0.2-0.8,0.2-1.1l0,0c0-0.4-0.1-0.8-0.2-1.2c-0.1-0.3-0.3-0.5-0.5-0.7c-0.2-0.2-0.5-0.3-0.8-0.3
		s-0.6,0.1-0.8,0.3c-0.2,0.2-0.4,0.4-0.5,0.7c-0.1,0.4-0.2,0.8-0.2,1.2l0,0c0,0.4,0.1,0.8,0.2,1.2c0.1,0.3,0.3,0.6,0.5,0.7
		c0.2,0.2,0.5,0.3,0.8,0.3C117.8,39.5,118,39.4,118.3,39.3L118.3,39.3z"/>
	<path class="st0" d="M123.8,32.5h3.6v1.8h0.1c0.1-0.4,0.4-0.7,0.6-1c0.3-0.3,0.6-0.5,1-0.7s0.8-0.2,1.2-0.2c0.7,0,1.5,0.2,2.1,0.6
		c0.6,0.4,1,1,1.3,1.7c0.3,0.9,0.5,1.8,0.4,2.8l0,0c0,0.9-0.1,1.9-0.4,2.8c-0.2,0.7-0.7,1.3-1.3,1.7s-1.3,0.6-2,0.6
		c-0.4,0-0.9-0.1-1.3-0.2c-0.4-0.1-0.7-0.4-1-0.6c-0.3-0.3-0.5-0.6-0.6-1h-0.1v4.8h-3.6L123.8,32.5z M129.8,39.3
		c0.2-0.2,0.4-0.5,0.5-0.8c0.1-0.4,0.2-0.8,0.2-1.1l0,0c0-0.4-0.1-0.8-0.2-1.2c-0.1-0.3-0.3-0.5-0.5-0.7s-0.5-0.3-0.8-0.3
		c-0.3,0-0.6,0.1-0.8,0.3c-0.2,0.2-0.4,0.4-0.5,0.7c-0.1,0.4-0.2,0.8-0.2,1.2l0,0c0,0.4,0.1,0.8,0.2,1.2c0.1,0.3,0.3,0.6,0.5,0.7
		c0.2,0.2,0.5,0.3,0.8,0.3C129.2,39.5,129.5,39.4,129.8,39.3L129.8,39.3z"/>
</g>
</svg>
